<svg width="355" height="451" viewBox="0 0 355 451" fill="none" xmlns="http://www.w3.org/2000/svg">
<path d="M154.5 0L179.182 14.25V42.75L154.5 57L129.818 42.75V14.25L154.5 0Z" fill="#C4C4C4" fill-opacity="0.25"/>
<path d="M212.5 99L237.182 113.25V141.75L212.5 156L187.818 141.75V113.25L212.5 99Z" fill="#C4C4C4" fill-opacity="0.25"/>
<path d="M125.5 49L150.182 63.25V91.75L125.5 106L100.818 91.75V63.25L125.5 49Z" fill="#6B4961"/>
<path d="M183.5 148L208.182 162.25V190.75L183.5 205L158.818 190.75V162.25L183.5 148Z" fill="#C4C4C4" fill-opacity="0.25"/>
<path d="M155.5 198L180.182 212.25V240.75L155.5 255L130.818 240.75V212.25L155.5 198Z" fill="#C4C4C4" fill-opacity="0.25"/>
<path d="M183.5 247L208.182 261.25V289.75L183.5 304L158.818 289.75V261.25L183.5 247Z" fill="#C4C4C4" fill-opacity="0.25"/>
<path d="M155.5 296L180.182 310.25V338.75L155.5 353L130.818 338.75V310.25L155.5 296Z" fill="#C4C4C4" fill-opacity="0.25"/>
<path d="M184.5 343L209.182 357.25V385.75L184.5 400L159.818 385.75V357.25L184.5 343Z" fill="#C4C4C4" fill-opacity="0.25"/>
<path d="M213.5 392L238.182 406.25V434.75L213.5 449L188.818 434.75V406.25L213.5 392Z" fill="#C4C4C4" fill-opacity="0.25"/>
<path d="M-16.5 0L8.18172 14.25V42.75L-16.5 57L-41.1817 42.75V14.25L-16.5 0Z" fill="#C4C4C4" fill-opacity="0.25"/>
<path d="M41.5 99L66.1817 113.25V141.75L41.5 156L16.8183 141.75V113.25L41.5 99Z" fill="#6B4961"/>
<path d="M211.5 0L236.182 14.25V42.75L211.5 57L186.818 42.75V14.25L211.5 0Z" fill="#6B4961"/>
<path d="M269.5 99L294.182 113.25V141.75L269.5 156L244.818 141.75V113.25L269.5 99Z" fill="#C4C4C4" fill-opacity="0.25"/>
<path d="M182.5 49L207.182 63.25V91.75L182.5 106L157.818 91.75V63.25L182.5 49Z" fill="#C4C4C4" fill-opacity="0.25"/>
<path d="M240.5 148L265.182 162.25V190.75L240.5 205L215.818 190.75V162.25L240.5 148Z" fill="#6B4961"/>
<path d="M212.5 198L237.182 212.25V240.75L212.5 255L187.818 240.75V212.25L212.5 198Z" fill="#C4C4C4" fill-opacity="0.25"/>
<path d="M240.5 247L265.182 261.25V289.75L240.5 304L215.818 289.75V261.25L240.5 247Z" fill="#C4C4C4" fill-opacity="0.25"/>
<path d="M212.5 296L237.182 310.25V338.75L212.5 353L187.818 338.75V310.25L212.5 296Z" fill="#C4C4C4" fill-opacity="0.25"/>
<path d="M241.5 343L266.182 357.25V385.75L241.5 400L216.818 385.75V357.25L241.5 343Z" fill="#C4C4C4" fill-opacity="0.25"/>
<path d="M270.5 392L295.182 406.25V434.75L270.5 449L245.818 434.75V406.25L270.5 392Z" fill="#C4C4C4" fill-opacity="0.25"/>
<path d="M12.5 49L37.1817 63.25V91.75L12.5 106L-12.1817 91.75V63.25L12.5 49Z" fill="#C4C4C4" fill-opacity="0.25"/>
<path d="M70.5 148L95.1817 162.25V190.75L70.5 205L45.8183 190.75V162.25L70.5 148Z" fill="#C4C4C4" fill-opacity="0.25"/>
<path d="M42.5 198L67.1817 212.25V240.75L42.5 255L17.8183 240.75V212.25L42.5 198Z" fill="#C4C4C4" fill-opacity="0.25"/>
<path d="M70.5 247L95.1817 261.25V289.75L70.5 304L45.8183 289.75V261.25L70.5 247Z" fill="#C4C4C4" fill-opacity="0.25"/>
<path d="M42.5 296L67.1817 310.25V338.75L42.5 353L17.8183 338.75V310.25L42.5 296Z" fill="#C4C4C4" fill-opacity="0.25"/>
<path d="M70.5 345L95.1817 359.25V387.75L70.5 402L45.8183 387.75V359.25L70.5 345Z" fill="#6B4961"/>
<path d="M99.5 394L124.182 408.25V436.75L99.5 451L74.8183 436.75V408.25L99.5 394Z" fill="#C4C4C4" fill-opacity="0.25"/>
<path d="M40.5 0L65.1817 14.25V42.75L40.5 57L15.8183 42.75V14.25L40.5 0Z" fill="#C4C4C4" fill-opacity="0.25"/>
<path d="M98.5 99L123.182 113.25V141.75L98.5 156L73.8183 141.75V113.25L98.5 99Z" fill="#C4C4C4" fill-opacity="0.25"/>
<path d="M268.5 0L293.182 14.25V42.75L268.5 57L243.818 42.75V14.25L268.5 0Z" fill="#C4C4C4" fill-opacity="0.25"/>
<path d="M326.5 99L351.182 113.25V141.75L326.5 156L301.818 141.75V113.25L326.5 99Z" fill="#C4C4C4" fill-opacity="0.25"/>
<path d="M239.5 49L264.182 63.25V91.75L239.5 106L214.818 91.75V63.25L239.5 49Z" fill="#C4C4C4" fill-opacity="0.25"/>
<path d="M297.5 148L322.182 162.25V190.75L297.5 205L272.818 190.75V162.25L297.5 148Z" fill="#C4C4C4" fill-opacity="0.25"/>
<path d="M69.5 49L94.1817 63.25V91.75L69.5 106L44.8183 91.75V63.25L69.5 49Z" fill="#C4C4C4" fill-opacity="0.25"/>
<path d="M127.5 148L152.182 162.25V190.75L127.5 205L102.818 190.75V162.25L127.5 148Z" fill="#C4C4C4" fill-opacity="0.25"/>
<path d="M99.5 198L124.182 212.25V240.75L99.5 255L74.8183 240.75V212.25L99.5 198Z" fill="#C4C4C4" fill-opacity="0.25"/>
<path d="M127.5 247L152.182 261.25V289.75L127.5 304L102.818 289.75V261.25L127.5 247Z" fill="#C4C4C4" fill-opacity="0.25"/>
<path d="M99.5 296L124.182 310.25V338.75L99.5 353L74.8183 338.75V310.25L99.5 296Z" fill="#C4C4C4" fill-opacity="0.25"/>
<path d="M128.5 343L153.182 357.25V385.75L128.5 400L103.818 385.75V357.25L128.5 343Z" fill="#C4C4C4" fill-opacity="0.25"/>
<path d="M157.5 392L182.182 406.25V434.75L157.5 449L132.818 434.75V406.25L157.5 392Z" fill="#C4C4C4" fill-opacity="0.25"/>
<path d="M97.5 0L122.182 14.25V42.75L97.5 57L72.8183 42.75V14.25L97.5 0Z" fill="#C4C4C4" fill-opacity="0.25"/>
<path d="M155.5 99L180.182 113.25V141.75L155.5 156L130.818 141.75V113.25L155.5 99Z" fill="#C4C4C4" fill-opacity="0.25"/>
</svg>
